<svg width="105" height="105" viewBox="0 0 105 105" fill="none" xmlns="http://www.w3.org/2000/svg">
<rect x="53.0322" y="0.127625" width="73.8218" height="73.8218" transform="rotate(45.779 53.0322 0.127625)" fill="#FDFDFD"/>
<rect x="52.8589" y="0.125427" width="18.4554" height="18.4554" transform="rotate(45.779 52.8589 0.125427)" fill="#6A0FA2"/>
<rect x="65.7628" y="13.3206" width="18.4554" height="18.4554" transform="rotate(45.779 65.7628 13.3206)" fill="#804C9F"/>
<rect x="39.6635" y="13.0288" width="18.4554" height="18.4554" transform="rotate(45.779 39.6635 13.0288)" fill="#804C9F"/>
<rect x="78.6659" y="26.5156" width="18.4554" height="18.4554" transform="rotate(45.779 78.6659 26.5156)" fill="#99969A"/>
<rect x="26.4695" y="25.9321" width="18.4554" height="18.4554" transform="rotate(45.779 26.4695 25.9321)" fill="#99969A"/>
<rect x="91.5687" y="39.7106" width="18.4554" height="18.4554" transform="rotate(45.779 91.5687 39.7106)" fill="#DDCFE6"/>
<rect x="13.2743" y="38.8353" width="18.4554" height="18.4554" transform="rotate(45.779 13.2743 38.8353)" fill="#DDCFE6"/>
<rect x="26.1768" y="52.0301" width="18.4554" height="18.4554" transform="rotate(45.779 26.1768 52.0301)" fill="#B38080"/>
<rect x="78.3744" y="52.6138" width="18.4554" height="18.4554" transform="rotate(45.779 78.3744 52.6138)" fill="#B38080"/>
<rect x="39.0808" y="65.2257" width="18.4554" height="18.4554" transform="rotate(45.779 39.0808 65.2257)" fill="#DD4C4C"/>
<rect x="65.1791" y="65.5168" width="18.4554" height="18.4554" transform="rotate(45.779 65.1791 65.5168)" fill="#DD4C4C"/>
<rect x="51.9839" y="78.4203" width="18.4554" height="18.4554" transform="rotate(45.779 51.9839 78.4203)" fill="#FF0C0C"/>
</svg>
